<?xml version="1.0" encoding="utf-8"?>
<!-- Svg Vector Icons : http://www.onlinewebfonts.com/icon -->
<!DOCTYPE svg PUBLIC "-//W3C//DTD SVG 1.1//EN" "http://www.w3.org/Graphics/SVG/1.1/DTD/svg11.dtd">
<svg version="1.1" xmlns="http://www.w3.org/2000/svg" xmlns:xlink="http://www.w3.org/1999/xlink" x="0px" y="0px" viewBox="0 0 1000 1000" enable-background="new 0 0 1000 1000" xml:space="preserve">
<metadata> Svg Vector Icons : http://www.onlinewebfonts.com/icon </metadata>
<g><g transform="translate(0.000000,511.000000) scale(0.100000,-0.100000)"><path d="M1324.6,4981.3c-7.2-16.7-9.6-2223.2-7.2-4901.2l7.2-4870.1h3673.5h3673.5l7.2,2137.1c2.4,1172.6,0,2134.7-7.2,2134.7c-9.6,0-1809.2-1261.2-1916.9-1342.6c-14.4-12-256.1,294.4-655.7,840c-540.8,737.1-636.6,856.7-667.7,830.4c-21.5-16.8-337.5-280-703.6-583.9c-366.2-306.3-672.5-557.6-684.4-557.6c-9.6,0-280,244.1-600.7,540.8l-586.3,543.3L2490-262.1l-366.2-16.8L2449.3-6.1l325.5,275.2l639-409.2c351.8-225,655.7-414,674.9-418.8c21.5-4.8,361.4,225,789.7,540.9c414,301.5,761,543.2,770.6,538.4c9.6-7.2,284.8-361.4,607.9-789.7c325.5-426,600.7-773,615-768.2c12,2.4,423.6,332.7,916.6,732.3l895,727.5v1270.8v1268.4L7661.6,3985.7L6637.4,5010H3985.8C1886.9,5010,1331.7,5002.8,1324.6,4981.3z M6223.3,3581.3l7.2-1024.3l1024.3-7.2l1021.9-4.8v-964.4V618.5L7618.6,80.1c-361.4-296.8-667.7-538.5-679.7-538.5c-12,0-253.7,301.5-533.7,670.1c-280,368.5-548,720.3-595.9,782.6l-86.2,112.5l-816-595.9L4091.1-87.4l-674.9,430.8l-674.9,430.8l-122.1-102.9c-67-57.5-294.4-246.5-505-423.6L1731.4-70.7l-7.2,2307c-2.4,1268.4,0,2321.4,7.2,2338.1c7.2,21.5,481,28.7,2249.6,28.7h2237.6L6223.3,3581.3z M7372.1,3700.9c392.5-392.5,713.2-720.3,713.2-732.3c0-9.6-325.5-14.4-722.8-12l-725.1,7.2l-7.2,725.1c-2.4,397.3,2.4,722.7,12,722.7S6982,4091,7372.1,3700.9z M3361.1-1274.4c593.5-552.8,662.9-607.9,698.8-576.8c40.7,33.5,1029.1,844.8,1227.7,1005.1l110.1,88.6l615-837.6l615-837.6l112.5,76.6c62.2,43.1,418.8,292,794.5,552.8c375.7,263.3,696.4,483.4,713.2,488.2c23.9,9.6,28.7-299.1,23.9-1526.8l-7.2-1541.2H4998.1H1731.4l-7.2,1837.9c-4.8,1459.8,0,1835.6,23.9,1837.9c64.6,7.2,684.4,38.3,816.1,40.7l138.8,4.8L3361.1-1274.4z"/></g></g>
</svg>