<?xml version="1.0" encoding="utf-8"?>
<!-- Generator: Adobe Illustrator 21.0.2, SVG Export Plug-In . SVG Version: 6.00 Build 0)  -->
<svg version="1.1" id="Layer_1" xmlns="http://www.w3.org/2000/svg" xmlns:xlink="http://www.w3.org/1999/xlink" x="0px" y="0px"
	 viewBox="0 0 512 512" style="enable-background:new 0 0 512 512;" xml:space="preserve">
<path fill="#ffffff" d="M197.1-164h-34.2c-3.1,0-5.7,2.5-5.7,5.7v34.2c0,3.1,2.5,5.7,5.7,5.7h34.2c3.1,0,5.7-2.5,5.7-5.7v-34.2
	C202.8-161.5,200.2-164,197.1-164z"/>
<polygon fill="#ffffff" points="236,82.2 236,158.5 312.3,158.5 "/>
<polygon fill="#ffffff" points="212.4,54.8 173.3,54.8 151.5,54.8 9,54.8 9,503 339.7,503 339.7,478 339.7,456.2 339.7,182.1 212.4,182.1 "/>
<polygon fill="#ffffff" points="220.1,33 241.8,54.8 339.7,152.7 361.5,174.4 361.5,182.1 361.5,456.2 504,456.2 504,135.3 376.7,135.3 376.7,8 
	173.3,8 173.3,33 212.4,33 "/>
<polygon fill="#ffffff" points="400.2,111.8 476.6,111.8 400.2,35.4 "/>
</svg>
