<?xml version="1.0" ?><!DOCTYPE svg  PUBLIC '-//W3C//DTD SVG 1.1//EN'  'http://www.w3.org/Graphics/SVG/1.1/DTD/svg11.dtd'><svg enable-background="new 0 0 32 32" height="32px" id="Layer_1" version="1.1" viewBox="0 0 32 32" width="32px" xml:space="preserve" xmlns="http://www.w3.org/2000/svg" xmlns:xlink="http://www.w3.org/1999/xlink"><g><path d="M23.898,6c-0.307-1.154-1.342-2-2.598-2H18V2h-2.184C15.403,0.837,14.304,0,13,0s-2.403,0.837-2.816,2H8v2   H4.7C3.2,4,2,5.2,2,6.7v20.6C2,28.8,3.2,30,4.7,30H8V6H23.898z M13,1.5c0.828,0,1.5,0.672,1.5,1.5S13.828,4.5,13,4.5   S11.5,3.828,11.5,3S12.172,1.5,13,1.5z" fill="#ffffff"/><path d="M24,8H10v24h20V14L24,8z M14,12h6v2h-6V12z M26,29H14v-2h12V29z M26,24H14v-2h12V24z M26,19H14v-2h12V19z    M24,14v-4l4,4H24z" fill="#ffffff"/></g></svg>